HIERARCHY
ROOT Hips
{
    OFFSET 0.000000 0.000000 0.000000
    CHANNELS 6 Xposition Yposition Zposition Zrotation Xrotation Yrotation
    JOINT Spine
    {
        OFFSET -0.000000 7.236184 0.000000
        CHANNELS 3 Zrotation Xrotation Yrotation
        JOINT Spine1
        {
            OFFSET -0.000000 20.420147 0.000000
            CHANNELS 3 Zrotation Xrotation Yrotation
            JOINT Neck
            {
                OFFSET -0.000000 20.336288 1.848754
                CHANNELS 3 Zrotation Xrotation Yrotation
                JOINT Head
                {
                    OFFSET -0.000000 12.354461 -1.764923
                    CHANNELS 3 Zrotation Xrotation Yrotation
                    End Site
                    {
                        OFFSET -0.000000 22.061537 0.000000
                    }
                }
            }
            JOINT LeftShoulder
            {
                OFFSET 3.573296 18.396038 -0.314103
                CHANNELS 3 Zrotation Xrotation Yrotation
                JOINT LeftArm
                {
                    OFFSET 10.880760 0.000000 0.000000
                    CHANNELS 3 Zrotation Xrotation Yrotation
                    JOINT LeftForeArm
                    {
                        OFFSET 27.185530 0.000000 0.000000
                        CHANNELS 3 Zrotation Xrotation Yrotation
                        JOINT LeftHand
                        {
                            OFFSET 27.825975 0.000000 0.000000
                            CHANNELS 3 Zrotation Xrotation Yrotation
                            End Site
                            {
                                OFFSET 13.236923 0.000000 0.000000
                            }
                        }
                    }
                }
            }
            JOINT RightShoulder
            {
                OFFSET -3.474926 18.396038 -0.314103
                CHANNELS 3 Zrotation Xrotation Yrotation
                JOINT RightArm
                {
                    OFFSET -10.880760 0.000000 0.000000
                    CHANNELS 3 Zrotation Xrotation Yrotation
                    JOINT RightForeArm
                    {
                        OFFSET -27.185530 0.000000 0.000000
                        CHANNELS 3 Zrotation Xrotation Yrotation
                        JOINT RightHand
                        {
                            OFFSET -27.825975 0.000000 0.000000
                            CHANNELS 3 Zrotation Xrotation Yrotation
                            End Site
                            {
                                OFFSET -13.236923 0.000000 0.000000
                            }
                        }
                    }
                }
            }
        }
    }
    JOINT LeftUpLeg
    {
        OFFSET 8.824615 0.000000 0.000000
        CHANNELS 3 Zrotation Xrotation Yrotation
        JOINT LeftLeg
        {
            OFFSET -0.000000 -35.111282 0.000000
            CHANNELS 3 Zrotation Xrotation Yrotation
            JOINT LeftFoot
            {
                OFFSET -0.000000 -42.324711 0.000000
                CHANNELS 3 Zrotation Xrotation Yrotation
                JOINT LeftToeBase
                {
                    OFFSET -0.000000 -5.735999 13.236923
                    CHANNELS 3 Zrotation Xrotation Yrotation
                    End Site
                    {
                        OFFSET -0.000000 0.000000 3.529846
                    }
                }
            }
        }
    }
    JOINT RightUpLeg
    {
        OFFSET -8.824615 0.000000 0.000000
        CHANNELS 3 Zrotation Xrotation Yrotation
        JOINT RightLeg
        {
            OFFSET -0.000000 -35.111282 0.000000
            CHANNELS 3 Zrotation Xrotation Yrotation
            JOINT RightFoot
            {
                OFFSET -0.000000 -42.324711 0.000000
                CHANNELS 3 Zrotation Xrotation Yrotation
                JOINT RightToeBase
                {
                    OFFSET -0.000000 -5.735999 13.236923
                    CHANNELS 3 Zrotation Xrotation Yrotation
                    End Site
                    {
                        OFFSET -0.000000 0.000000 3.529846
                    }
                }
            }
        }
    }
}
MOTION
Frames:    6
Frame Time:    0.008333
-7.279107    80.212219    107.027344    10.286157    -16.270840    -165.620255    -0.897053    -8.567845    3.684808    7.670113    -1.475375    3.850921    2.775576    9.572354    -14.610824    20.385935    -32.898548    -6.789034    1.955853    15.014711    1.966175    -54.775749    35.500843    -26.848585    0.925243    -4.766849    -13.188449    19.842373    -4.413482    1.415413    6.851775    17.936968    -8.625094    47.892952    41.630688    31.578598    -8.779333    -7.520204    32.474144    -15.335091    -4.740921    -1.732765    10.921449    -38.724087    1.489821    2.286770    41.432716    2.813925    -8.008009    -15.782531    -17.684893    1.409068    -0.307389    -1.562753    -26.052448    -11.945335    -7.851503    6.210494    44.884762    -3.019215    17.107361    4.333174    -13.962644    1.513642    -9.799804    -1.661380    
-7.537594    80.264633    107.037903    10.293962    -16.138952    -165.336060    -0.840972    -8.465710    3.639482    7.597845    -1.544656    3.804332    2.731017    9.634833    -14.783498    20.488276    -32.796425    -6.940284    1.988005    14.968431    1.983172    -54.680820    35.364849    -26.888826    0.989950    -4.824420    -13.421088    19.738712    -4.470499    1.371554    6.843775    17.929293    -8.653718    47.846664    41.663151    31.615616    -8.780553    -7.458936    32.625858    -15.281333    -4.667707    -1.729063    10.691946    -38.613575    1.380709    2.209082    41.337467    2.672420    -8.052015    -15.708304    -17.821857    1.489383    -0.266837    -1.651704    -26.495222    -12.112407    -8.039288    6.762713    48.977619    -2.783423    16.563921    4.177759    -14.210862    1.560902    -10.130622    -1.714190    
-7.778880    80.306923    107.051849    10.287715    -16.019239    -165.068542    -0.796836    -8.374498    3.594496    7.513171    -1.604797    3.758229    2.683115    9.696847    -14.942828    20.592184    -32.700684    -7.075783    2.017241    14.923362    2.001937    -54.593689    35.190750    -26.910179    1.061231    -4.879253    -13.670050    19.649834    -4.524559    1.320641    6.835675    17.917679    -8.686932    47.799641    41.698921    31.649200    -8.796908    -7.406462    32.800030    -15.241364    -4.596646    -1.726091    10.472594    -38.526596    1.282857    2.126960    41.269783    2.543680    -8.107104    -15.630246    -17.962549    1.565724    -0.234557    -1.736261    -26.945698    -12.260260    -8.204337    7.409240    53.118412    -2.663477    16.046131    4.028589    -14.390179    1.584620    -10.387430    -1.740983    
-8.006867    80.340279    107.069244    10.270984    -15.911802    -164.818542    -0.762506    -8.295660    3.550790    7.417741    -1.654131    3.713337    2.630821    9.757515    -15.090690    20.701136    -32.613232    -7.195629    2.043585    14.878779    2.022011    -54.512680    34.977409    -26.913612    1.139783    -4.933201    -13.936378    19.582211    -4.577138    1.263264    6.826668    17.901880    -8.723629    47.751095    41.738316    31.679079    -8.830657    -7.362774    33.000134    -15.214157    -4.526802    -1.723282    10.267441    -38.462051    1.201237    2.036977    41.226780    2.431110    -8.170160    -15.545974    -18.109333    1.640616    -0.214265    -1.819241    -27.405470    -12.392813    -8.336952    8.208418    57.353836    -2.702313    15.552642    3.871953    -14.506605    1.581689    -10.570329    -1.738295    
-8.217166    80.364502    107.089508    10.247381    -15.819711    -164.595703    -0.736702    -8.232447    3.510884    7.315538    -1.689693    3.671938    2.575156    9.814106    -15.223757    20.814878    -32.538120    -7.295808    2.066324    14.835086    2.041294    -54.438950    34.731865    -26.899494    1.223833    -4.985915    -14.210400    19.543764    -4.627621    1.202088    6.816705    17.882414    -8.760776    47.703167    41.777355    31.702951    -8.880958    -7.327731    33.221676    -15.199736    -4.458559    -1.720172    10.086884    -38.420105    1.143582    1.940267    41.206619    2.341080    -8.236950    -15.456134    -18.260521    1.713533    -0.209258    -1.900077    -27.859966    -12.509088    -8.426695    9.214748    61.580856    -2.966253    15.097754    3.701387    -14.565365    1.550528    -10.675493    -1.704350    
-8.412502    80.380455    107.112549    10.219230    -15.741817    -164.401566    -0.717256    -8.184049    3.475823    7.207057    -1.711158    3.634915    2.515835    9.866072    -15.343636    20.936283    -32.476181    -7.376598    2.085792    14.790854    2.058819    -54.370174    34.456562    -26.869225    1.313074    -5.038189    -14.489710    19.539200    -4.676503    1.138853    6.805386    17.859743    -8.797022    47.656776    41.812950    31.720032    -8.946435    -7.299341    33.464802    -15.197174    -4.390340    -1.715877    9.933139    -38.397583    1.113559    1.836321    41.205681    2.275050    -8.306710    -15.359511    -18.419571    1.784849    -0.220378    -1.979194    -28.309198    -12.611714    -8.469502    10.554129    65.823486    -3.571967    14.677033    3.507589    -14.577865    1.490723    -10.705941    -1.638696    
